<svg id="visual" viewBox="0 0 900 600" width="900" height="600" xmlns="http://www.w3.org/2000/svg" xmlns:xlink="http://www.w3.org/1999/xlink" version="1.1"><g><g transform="translate(309 527)"><path d="M0 -54.2L47 -27.1L47 27.1L0 54.2L-47 27.1L-47 -27.1Z" fill="none" stroke="#906552" stroke-width="1"></path></g><g transform="translate(138 175)"><path d="M0 -12L10.4 -6L10.4 6L0 12L-10.4 6L-10.4 -6Z" fill="none" stroke="#906552" stroke-width="1"></path></g><g transform="translate(840 93)"><path d="M0 -30L26 -15L26 15L0 30L-26 15L-26 -15Z" stroke="#906552" fill="none" stroke-width="1"></path></g><g transform="translate(547 37)"><path d="M0 -40L34.6 -20L34.6 20L0 40L-34.6 20L-34.6 -20Z" stroke="#906552" fill="none" stroke-width="1"></path></g><g transform="translate(515 429)"><path d="M0 -13L11.3 -6.5L11.3 6.5L0 13L-11.3 6.5L-11.3 -6.5Z" stroke="#906552" fill="none" stroke-width="1"></path></g><g transform="translate(525 159)"><path d="M0 -52L45 -26L45 26L0 52L-45 26L-45 -26Z" stroke="#906552" fill="none" stroke-width="1"></path></g><g transform="translate(9 272)"><path d="M0 -35L30.3 -17.5L30.3 17.5L0 35L-30.3 17.5L-30.3 -17.5Z" stroke="#906552" fill="none" stroke-width="1"></path></g><g transform="translate(20 22)"><path d="M0 -28L24.2 -14L24.2 14L0 28L-24.2 14L-24.2 -14Z" stroke="#906552" fill="none" stroke-width="1"></path></g><g transform="translate(668 420)"><path d="M0 -40L34.6 -20L34.6 20L0 40L-34.6 20L-34.6 -20Z" stroke="#906552" fill="none" stroke-width="1"></path></g><g transform="translate(791 501)"><path d="M0 -38L32.9 -19L32.9 19L0 38L-32.9 19L-32.9 -19Z" stroke="#906552" fill="none" stroke-width="1"></path></g></g></svg>